<mxfile host="app.diagrams.net" agent="Mozilla/5.0 (Windows NT 10.0; Win64; x64) AppleWebKit/537.36 (KHTML, like Gecko) Chrome/132.0.0.0 Safari/537.36" version="26.0.16">
  <diagram name="페이지-1" id="P5-rWTY1kUvZ8RduytbI">
    <mxGraphModel dx="819" dy="441" grid="1" gridSize="10" guides="1" tooltips="1" connect="1" arrows="1" fold="1" page="1" pageScale="1" pageWidth="827" pageHeight="1169" math="0" shadow="0">
      <root>
        <mxCell id="0" />
        <mxCell id="1" parent="0" />
        <mxCell id="CXFf_yLnJKcqaa92Wy5I-1" value="" style="ellipse;whiteSpace=wrap;html=1;fillColor=none;" vertex="1" parent="1">
          <mxGeometry x="289" y="140" width="250" height="250" as="geometry" />
        </mxCell>
        <mxCell id="CXFf_yLnJKcqaa92Wy5I-2" value="s1" style="ellipse;whiteSpace=wrap;html=1;fillColor=#d5e8d4;strokeColor=#82b366;" vertex="1" parent="1">
          <mxGeometry x="500" y="330" width="30" height="30" as="geometry" />
        </mxCell>
        <mxCell id="CXFf_yLnJKcqaa92Wy5I-3" value="s2" style="ellipse;whiteSpace=wrap;html=1;fillColor=#ffe6cc;strokeColor=#d79b00;" vertex="1" parent="1">
          <mxGeometry x="300" y="330" width="30" height="30" as="geometry" />
        </mxCell>
        <mxCell id="CXFf_yLnJKcqaa92Wy5I-4" value="s3" style="ellipse;whiteSpace=wrap;html=1;fillColor=#f8cecc;strokeColor=#b85450;" vertex="1" parent="1">
          <mxGeometry x="300" y="170" width="30" height="30" as="geometry" />
        </mxCell>
        <mxCell id="CXFf_yLnJKcqaa92Wy5I-5" value="s0" style="ellipse;whiteSpace=wrap;html=1;fillColor=#dae8fc;strokeColor=#6c8ebf;" vertex="1" parent="1">
          <mxGeometry x="500" y="170" width="30" height="30" as="geometry" />
        </mxCell>
        <mxCell id="CXFf_yLnJKcqaa92Wy5I-6" value="s0=서버0&lt;div&gt;s1=서버1&lt;/div&gt;&lt;div&gt;s2=서버2&lt;/div&gt;&lt;div&gt;s3=서버3&lt;/div&gt;&lt;div&gt;s4=서버4&lt;/div&gt;" style="text;html=1;align=center;verticalAlign=middle;whiteSpace=wrap;rounded=0;" vertex="1" parent="1">
          <mxGeometry x="570" y="90" width="60" height="30" as="geometry" />
        </mxCell>
        <mxCell id="CXFf_yLnJKcqaa92Wy5I-7" value="k0" style="ellipse;whiteSpace=wrap;html=1;" vertex="1" parent="1">
          <mxGeometry x="360" y="132" width="30" height="30" as="geometry" />
        </mxCell>
        <mxCell id="CXFf_yLnJKcqaa92Wy5I-8" value="k1" style="ellipse;whiteSpace=wrap;html=1;" vertex="1" parent="1">
          <mxGeometry x="522" y="270" width="30" height="30" as="geometry" />
        </mxCell>
        <mxCell id="CXFf_yLnJKcqaa92Wy5I-9" value="k2" style="ellipse;whiteSpace=wrap;html=1;" vertex="1" parent="1">
          <mxGeometry x="370" y="370" width="30" height="30" as="geometry" />
        </mxCell>
        <mxCell id="CXFf_yLnJKcqaa92Wy5I-10" value="k3" style="ellipse;whiteSpace=wrap;html=1;" vertex="1" parent="1">
          <mxGeometry x="274" y="270" width="30" height="30" as="geometry" />
        </mxCell>
        <mxCell id="CXFf_yLnJKcqaa92Wy5I-11" value="k0=key0&lt;div&gt;k1=key1&lt;/div&gt;&lt;div&gt;k2=key2&lt;/div&gt;&lt;div&gt;k3=key3&lt;/div&gt;" style="text;html=1;align=center;verticalAlign=middle;whiteSpace=wrap;rounded=0;" vertex="1" parent="1">
          <mxGeometry x="570" y="190" width="60" height="30" as="geometry" />
        </mxCell>
        <mxCell id="CXFf_yLnJKcqaa92Wy5I-12" value="" style="endArrow=classic;html=1;rounded=0;curved=1;entryX=0.5;entryY=0;entryDx=0;entryDy=0;exitX=0.5;exitY=0;exitDx=0;exitDy=0;dashed=1;" edge="1" parent="1" source="CXFf_yLnJKcqaa92Wy5I-7" target="CXFf_yLnJKcqaa92Wy5I-5">
          <mxGeometry width="50" height="50" relative="1" as="geometry">
            <mxPoint x="394" y="110" as="sourcePoint" />
            <mxPoint x="460" y="70" as="targetPoint" />
            <Array as="points">
              <mxPoint x="460" y="60" />
            </Array>
          </mxGeometry>
        </mxCell>
        <mxCell id="CXFf_yLnJKcqaa92Wy5I-13" value="" style="endArrow=classic;html=1;rounded=0;curved=1;entryX=1;entryY=0.5;entryDx=0;entryDy=0;exitX=1;exitY=0.5;exitDx=0;exitDy=0;" edge="1" parent="1" source="CXFf_yLnJKcqaa92Wy5I-8" target="CXFf_yLnJKcqaa92Wy5I-2">
          <mxGeometry width="50" height="50" relative="1" as="geometry">
            <mxPoint x="570" y="322" as="sourcePoint" />
            <mxPoint x="710" y="360" as="targetPoint" />
            <Array as="points">
              <mxPoint x="570" y="330" />
            </Array>
          </mxGeometry>
        </mxCell>
        <mxCell id="CXFf_yLnJKcqaa92Wy5I-14" value="" style="endArrow=classic;html=1;rounded=0;curved=1;entryX=0.5;entryY=1;entryDx=0;entryDy=0;exitX=1;exitY=0.5;exitDx=0;exitDy=0;" edge="1" parent="1" target="CXFf_yLnJKcqaa92Wy5I-3">
          <mxGeometry width="50" height="50" relative="1" as="geometry">
            <mxPoint x="382" y="400" as="sourcePoint" />
            <mxPoint x="360" y="460" as="targetPoint" />
            <Array as="points">
              <mxPoint x="320" y="430" />
            </Array>
          </mxGeometry>
        </mxCell>
        <mxCell id="CXFf_yLnJKcqaa92Wy5I-15" value="" style="endArrow=classic;html=1;rounded=0;curved=1;entryX=0;entryY=0.5;entryDx=0;entryDy=0;exitX=1;exitY=0.5;exitDx=0;exitDy=0;" edge="1" parent="1" target="CXFf_yLnJKcqaa92Wy5I-4">
          <mxGeometry width="50" height="50" relative="1" as="geometry">
            <mxPoint x="274" y="290" as="sourcePoint" />
            <mxPoint x="207" y="250" as="targetPoint" />
            <Array as="points">
              <mxPoint x="220" y="220" />
            </Array>
          </mxGeometry>
        </mxCell>
        <mxCell id="CXFf_yLnJKcqaa92Wy5I-16" value="s4" style="ellipse;whiteSpace=wrap;html=1;fillColor=#e1d5e7;strokeColor=#9673a6;" vertex="1" parent="1">
          <mxGeometry x="430" y="132" width="30" height="30" as="geometry" />
        </mxCell>
        <mxCell id="CXFf_yLnJKcqaa92Wy5I-17" value="" style="shape=mxgraph.mockup.markup.redX;fillColor=#ff0000;html=1;shadow=0;whiteSpace=wrap;strokeColor=none;" vertex="1" parent="1">
          <mxGeometry x="436" y="91" width="20" height="20" as="geometry" />
        </mxCell>
        <mxCell id="CXFf_yLnJKcqaa92Wy5I-20" value="" style="endArrow=classic;html=1;rounded=0;curved=1;exitX=0.5;exitY=1;exitDx=0;exitDy=0;entryX=0.5;entryY=1;entryDx=0;entryDy=0;" edge="1" parent="1" source="CXFf_yLnJKcqaa92Wy5I-7" target="CXFf_yLnJKcqaa92Wy5I-16">
          <mxGeometry width="50" height="50" relative="1" as="geometry">
            <mxPoint x="399" y="295" as="sourcePoint" />
            <mxPoint x="430" y="190" as="targetPoint" />
            <Array as="points">
              <mxPoint x="400" y="210" />
            </Array>
          </mxGeometry>
        </mxCell>
      </root>
    </mxGraphModel>
  </diagram>
</mxfile>
